<?xml version="1.0" encoding="UTF-8" standalone="no"?>
<!-- Generated by IcoMoon.io -->

<svg
   version="1.1"
   width="1024"
   height="1024"
   viewBox="0 0 1024 1024"
   id="svg3"
   sodipodi:docname="eye-coordinates.svg"
   inkscape:version="1.3.2 (091e20ef0f, 2023-11-25)"
   xmlns:inkscape="http://www.inkscape.org/namespaces/inkscape"
   xmlns:sodipodi="http://sodipodi.sourceforge.net/DTD/sodipodi-0.dtd"
   xmlns="http://www.w3.org/2000/svg"
   xmlns:svg="http://www.w3.org/2000/svg">
  <defs
     id="defs3" />
  <sodipodi:namedview
     id="namedview3"
     pagecolor="#ffffff"
     bordercolor="#000000"
     borderopacity="0.25"
     inkscape:showpageshadow="2"
     inkscape:pageopacity="0.0"
     inkscape:pagecheckerboard="0"
     inkscape:deskcolor="#d1d1d1"
     inkscape:zoom="0.4453125"
     inkscape:cx="510.87719"
     inkscape:cy="512"
     inkscape:window-width="1900"
     inkscape:window-height="1032"
     inkscape:window-x="10"
     inkscape:window-y="38"
     inkscape:window-maximized="1"
     inkscape:current-layer="svg3" />
  <g
     id="icomoon-ignore" />
  <path
     style="color:#000000;fill:#000000;stroke-linecap:round;stroke-linejoin:round;stroke-miterlimit:2.6;-inkscape-stroke:none"
     d="m 331.44727,314.81055 a 15.2908,15.2908 0 0 0 -7.64649,2.04101 L 7.6601562,498.93359 A 15.292329,15.292329 0 0 0 2.0644531,519.85547 L 107.11133,700.9375 a 15.2908,15.2908 0 0 0 20.90039,5.55273 15.2908,15.2908 0 0 0 5.55273,-20.89843 L 36.214844,517.77734 339.0625,343.35156 a 15.2908,15.2908 0 0 0 5.61914,-20.88086 15.2908,15.2908 0 0 0 -13.23437,-7.66015 z"
     id="path1" />
  <path
     style="color:#000000;fill:#000000;stroke-linecap:round;stroke-linejoin:round;stroke-miterlimit:2.6;-inkscape-stroke:none"
     d="m 396.46094,315.81055 a 15.292329,15.292329 0 0 0 -13.24805,22.92578 l 99.77734,173.17383 -99.28515,172.73437 a 15.2908,15.2908 0 0 0 5.63672,20.87695 15.2908,15.2908 0 0 0 20.87695,-5.63671 l 90.42969,-157.32813 90.65625,157.33984 a 15.2908,15.2908 0 0 0 20.88281,5.61524 15.2908,15.2908 0 0 0 5.61523,-20.88281 L 518.27539,511.89258 617.81055,338.72266 a 15.292329,15.292329 0 0 0 -13.25586,-22.91211 z m 26.45703,30.58203 h 155.21094 l -77.51172,134.85156 z"
     id="path2" />
  <path
     style="color:#000000;fill:#000000;stroke-linecap:round;stroke-linejoin:round;stroke-miterlimit:2.6;-inkscape-stroke:none"
     d="m 903.20898,315.31055 a 15.2908,15.2908 0 0 0 -7.64843,2.03711 15.2908,15.2908 0 0 0 -5.62891,20.8789 L 990.58203,513.16602 904.16406,662.73828 708.32227,324.93359 a 15.292329,15.292329 0 0 0 -26.43946,-0.0273 L 577.83594,503.48437 a 15.292329,15.292329 0 0 0 -0.0488,15.3125 l 104.54687,182.08008 a 15.2908,15.2908 0 0 0 20.87305,5.64649 15.2908,15.2908 0 0 0 5.64649,-20.87305 L 608.71094,511.23828 695.0625,363.0332 890.95898,700.93359 a 15.292329,15.292329 0 0 0 26.46875,-0.0195 L 1021.4727,520.83203 a 15.292329,15.292329 0 0 0 0.014,-15.27539 L 916.43945,322.97461 a 15.2908,15.2908 0 0 0 -13.23047,-7.66406 z"
     id="path3" />
</svg>
