<?xml version="1.0" encoding="UTF-8" standalone="no"?>
<!-- Generated by IcoMoon.io -->

<svg
   version="1.1"
   width="1024"
   height="1024"
   viewBox="0 0 1024 1024"
   id="svg2"
   sodipodi:docname="giants-deep_v1.svg"
   inkscape:version="1.3.2 (091e20ef0f, 2023-11-25)"
   xmlns:inkscape="http://www.inkscape.org/namespaces/inkscape"
   xmlns:sodipodi="http://sodipodi.sourceforge.net/DTD/sodipodi-0.dtd"
   xmlns="http://www.w3.org/2000/svg"
   xmlns:svg="http://www.w3.org/2000/svg">
  <defs
     id="defs2" />
  <sodipodi:namedview
     id="namedview2"
     pagecolor="#ffffff"
     bordercolor="#000000"
     borderopacity="0.25"
     inkscape:showpageshadow="2"
     inkscape:pageopacity="0.0"
     inkscape:pagecheckerboard="0"
     inkscape:deskcolor="#d1d1d1"
     inkscape:zoom="0.4453125"
     inkscape:cx="512"
     inkscape:cy="512"
     inkscape:window-width="945"
     inkscape:window-height="1032"
     inkscape:window-x="10"
     inkscape:window-y="38"
     inkscape:window-maximized="0"
     inkscape:current-layer="svg2" />
  <g
     id="icomoon-ignore" />
  <path
     fill="#000"
     d="M512.002 48.839c-5.298 0-10.567 0.119-15.822 0.295 5.142-0.116 10.29-0.226 15.701-0.226 5.529 0 10.836 0.108 16.112 0.234-5.311-0.18-10.636-0.303-15.991-0.303zM611.452 90.345c-1.466 0.094-4.831 1.157-9.266 3.007-36.216 15.109-88.911 17.798-193.51 9.88-39.384-2.981-70.496-3.718-87.079-2.062-14.191 1.417-26.312 2.159-26.935 1.649-0.004-0.003-0.001-0.008-0.005-0.011-9.231 4.907-18.275 10.118-27.12 15.618 0.075-0.033 0.159-0.082 0.234-0.115 15.38-6.773 88.328-7.272 182.247-1.248 61.080 3.917 69.349 3.815 91.6-1.136 26.671-5.934 65.114-19.434 70.244-24.669 0.665-0.679 0.469-0.969-0.411-0.913zM739.228 108.218c-0.285 2.795-24.832 23.598-40.287 34.119-14.136 9.623-63.23 29.976-84.668 35.099-28.259 6.754-87.478 5.87-119.388-1.78-68.541-16.432-164.366-20.823-214.151-9.813-26.824 5.932-56.749 18.084-53.22 21.613 0.927 0.927 10.138-0.987 20.47-4.256 15.557-4.922 28.758-5.888 76.839-5.622 55.525 0.307 61.212 0.961 130.619 15.035 39.911 8.093 79.311 15.52 87.554 16.504 34.91 4.168 102.324-9.412 143.346-28.879 28.793-13.663 64.013-36.911 72.747-48.014 2.628-3.341 5.457-6.215 7.255-7.483-8.833-5.807-17.873-11.32-27.115-16.525zM853.287 198.69c1.111 3.329-0.588 7.163-6.24 16.222-22.343 35.817-72.712 81.62-111.21 101.129-51.946 26.323-148.927 33.779-248.593 19.114-49.006-7.211-129.481-9.701-159.092-4.924-29.012 4.68-75.671 19.341-99.311 31.206-45.796 22.986-95.379 65.798-121.491 104.901-18.986 28.432-16.114 29.551 5.654 2.204 34.384-43.196 70.951-71.758 129.078-100.817 47.849-23.921 71.641-28.706 142.406-28.645 32.816 0.028 69.1 1.686 80.63 3.684 47.538 8.237 121.393 14.041 152.719 11.999 44.315-2.888 98.302-17.165 133.25-35.234 40.764-21.076 86.148-62.475 105.336-96.089 3.293-5.768 6.661-10.619 8.205-11.921-3.704-4.345-7.481-8.625-11.341-12.828zM782.313 212.627c-2.13 0.362-8.701 4.010-19.259 11.25-38.019 26.070-93.084 39.987-157.643 39.838-43.131-0.099-61.061-2.249-132.23-15.849-21.425-4.094-46.763-5.596-96.755-5.735-58.248-0.161-72.916 0.85-104.78 7.222-40.951 8.19-78.602 25.178-112.829 50.908-33.583 25.245-69.214 66.916-95.963 112.231l-5.112 8.659c-4.050 20.418-6.751 41.324-8.028 62.619 1.384-9.895 3.216-18.622 5.566-24.811 17.7-46.613 76.197-123.587 115.337-151.768 60.881-43.835 110.914-56.087 217.097-53.161 39.365 1.085 78.574 4.214 104.818 8.361 23.060 3.644 51.751 8.111 63.758 9.929 72.422 10.965 162.080-8.32 211.243-45.439 12.915-9.751 17.518-14.719 14.78-14.254zM926.233 304.423c0.029 0.201 0.083 0.435 0.083 0.596 0 2.508-19.693 24.134-43.761 48.057-50.707 50.4-65.075 67.688-101.080 121.628-33.288 49.869-47.266 60.251-90.596 67.294-24.063 3.911-85.594 1.752-140.296-4.924-127.19-15.524-159.126-16.79-215.84-8.551-19.378 2.815-35.901 5.117-36.718 5.117-4.519 0 17.789-14.3 33.599-21.538 14.903-6.823 25.688-8.9 56.401-10.86 20.886-1.333 47.139-1.2 58.34 0.295 58.624 7.827 149.357 14.364 199.363 14.364 52.11 0 57.705-0.572 72.945-7.469 20.546-9.299 31.496-20.738 52.344-54.683l16.383-26.674-15.202 8.686c-8.362 4.777-16.679 9.784-18.483 11.126-9.468 7.046-56.782 19.468-85.299 22.395-36.734 3.77-95.179 0.419-175.492-10.060-66.393-8.663-115.455-10.992-139.077-6.602-40.63 7.551-93.389 42.334-135.457 89.304-14.191 15.844-26.572 29.533-27.515 30.42-17.386 16.362-63.454 81.643-85.919 121.751-4.548 8.119-8.667 15.074-10.766 18.26 3.176 6.621 6.509 13.151 9.985 19.592 2.395-10.378 20.588-48.119 32.868-67.683 32.309-51.473 86.543-115.648 125.784-148.839 33.558-28.384 43.102-34.099 74.895-44.851 30.891-10.447 57.417-11.24 117.718-3.525 110.808 14.177 201.688 17.75 249.554 9.811 15.746-2.612 29.418-3.961 30.382-2.996 3.454 3.454-13.603 17.927-24.91 21.138-6.34 1.801-30.040 4.721-52.667 6.489-43.113 3.37-123.949-0.975-212.036-11.397-56.358-6.668-72.547-6.145-101.445 3.289-41.914 13.682-60.238 25.668-78.82 51.55-10.458 14.566-10.6 15.134-3.225 12.855 4.245-1.312 11.655-4.384 16.464-6.83 39.863-20.275 147.37-22.356 267.006-5.168 54.023 7.761 147.167 7.576 171.266-0.341 28.019-9.205 46.811-25.625 72.706-63.532 40.684-59.555 50.282-70.815 97.824-114.754 24.204-22.37 44.851-40.689 48.121-42.746-2.988-6.75-6.133-13.413-9.429-19.989zM822.164 331.659c-0.714-0.715-16.396 7.245-34.847 17.685s-48.060 24.449-65.798 31.131c-29.081 10.955-36.059 12.298-70.956 13.661-47.086 1.838-126.735-3.37-185.444-12.125-137.155-20.454-225.482 4.529-306.393 86.662-36.31 36.859-56.528 66.407-79.429 116.075-8.27 17.936-15.409 32.804-17.495 36.538 3.667 15.198 8.082 30.099 13.204 44.668 2.664-23.065 45.12-111.574 66.966-138.765 21.548-26.82 56.912-61.87 76.817-76.135 24.948-17.879 73.403-35.629 113.935-41.739 39.248-5.917 78.769-5.906 136.515 0.040 25.227 2.598 53.849 5.53 63.605 6.516 46.534 4.704 116.375 5.672 135.651 1.879 20.934-4.119 75.462-29.42 108.222-50.215 21.934-13.923 47.343-33.982 45.447-35.878zM951.541 365.472l-16.571 33.773c-34.090 69.477-71.582 118.148-117.885 153.038-54.913 41.379-149.715 61.171-234.248 48.908-82.17-11.92-200.537-15.904-237.805-8.006-44.668 9.466-105.782 44.185-139.541 79.276-21.303 22.143-18.947 22.215 8.063 0.244 19.811-16.115 62.583-37.417 101.593-50.599 40.591-13.716 96.842-14.444 198.348-2.567 60.211 7.045 93.216 9.229 138.682 9.182 55.811-0.057 61.646-0.644 90.306-9.094 52.649-15.522 98.449-45.153 143.007-92.518 27.049-28.754 39.671-46.836 62.678-89.79 9.109-17.007 13.514-25.25 16.362-24.397-3.51-16.148-7.847-31.982-12.989-47.45zM974.555 535.836c-10.091 44.106-57.357 113.501-101.153 148.388-31.751 25.292-80.082 49.524-121.246 60.791-53.39 14.612-138.486 14.604-224.147-0.021-127.927-21.842-188.994-13.165-253.842 36.071-19.134 14.528-29.417 25.799-15.336 16.81 42.96-27.425 68.394-39.158 98.664-45.514 44.505-9.345 78.456-8.598 151.161 3.329 88.773 14.563 145.837 19.801 178.998 16.429 96.336-9.796 172.317-41.989 223.68-94.768 20.706-21.277 40.038-46.93 49.544-65.745l5.952-11.781c3.994-20.866 6.625-42.222 7.724-63.989zM922.224 561.339c-1.454-0.038-4.811 2.524-8.766 6.871-16.19 17.794-59.459 54.65-76.382 65.063-21.069 12.964-36.71 18.36-81.381 28.070-40.279 8.755-47.037 9.485-118.030 12.745-35.835 1.646-67.193 0.658-120.946-3.804-103.162-8.563-147.556-7.803-190.285 3.257-40.86 10.576-59.882 19.052-85.586 38.133-25.56 18.975-61.907 62.548-77.188 92.534l-4.245 8.331c4.047 4.745 8.188 9.404 12.42 13.98 2.173-11.285 38.023-60.17 62.265-84.544 28.616-28.772 30.351-29.932 61.696-41.237 47.243-17.039 104.265-23.8 160.937-19.084 23.236 1.933 60.39 5.012 82.563 6.841 43.91 3.623 120.163 4.368 148.358 1.453 51.534-5.329 113.947-20.949 138.682-34.71 19.102-10.627 96.82-85.375 96.658-92.964-0.014-0.62-0.286-0.922-0.771-0.934zM824.634 805.336c-1.669 0.058-5.545 1.229-11.921 3.893-18.982 7.931-57.324 17.26-87.256 21.229-35.229 4.672-91.435 0.48-163.394-12.184-63.939-11.252-150.243-12.596-182.413-2.841-37.132 11.26-77.902 34.297-104.697 59.159l-22.714 21.074c9.904 6.712 20.084 13.048 30.516 18.993l5.423-5.802c22.858-24.457 69.869-52.431 111.167-66.15 34.171-11.351 70.68-10.671 270.569 5.050 33.434 2.63 92.465-10.609 136.773-30.675 14.605-6.614 21.618-11.874 17.946-11.746zM795.235 878.641c-9.666 3.607-26.817 8.325-43.632 11.838-43.617 9.112-54.075 9.17-178.918 0.977-67.694-4.442-107.651-1.279-144.156 11.416-25.545 8.884-36.543 16.529-14.034 9.754 30.615-9.214 78.587-12.355 144.151-9.437 78.493 3.493 166.944 3.729 190.285 0.51 6.636-0.915 10.634-1.404 12.767-1.388 11.546-7.394 22.723-15.309 33.537-23.67z"
     id="path1" />
  <path
     style="color:#000000;fill:#000000;-inkscape-stroke:none"
     d="M 512,0 C 229.51927,0 0,229.51927 0,512 c 0,282.48073 229.51927,512 512,512 282.48073,0 512,-229.51927 512,-512 C 1024,229.51927 794.48073,0 512,0 Z m 0,48.837891 C 768.08673,48.837891 975.16211,255.91327 975.16211,512 975.16211,768.08673 768.08673,975.16211 512,975.16211 255.91327,975.16211 48.837891,768.08673 48.837891,512 48.837891,255.91327 255.91327,48.837891 512,48.837891 Z"
     id="path2" />
</svg>
