<?xml version="1.0" encoding="UTF-8" standalone="no"?>
<!-- Generated by IcoMoon.io -->

<svg
   version="1.1"
   width="1024"
   height="1024"
   viewBox="0 0 1024 1024"
   id="svg2"
   sodipodi:docname="interloper.svg"
   inkscape:version="1.3.2 (091e20ef0f, 2023-11-25)"
   xmlns:inkscape="http://www.inkscape.org/namespaces/inkscape"
   xmlns:sodipodi="http://sodipodi.sourceforge.net/DTD/sodipodi-0.dtd"
   xmlns="http://www.w3.org/2000/svg"
   xmlns:svg="http://www.w3.org/2000/svg">
  <defs
     id="defs2" />
  <sodipodi:namedview
     id="namedview2"
     pagecolor="#ffffff"
     bordercolor="#000000"
     borderopacity="0.25"
     inkscape:showpageshadow="2"
     inkscape:pageopacity="0.0"
     inkscape:pagecheckerboard="0"
     inkscape:deskcolor="#d1d1d1"
     inkscape:zoom="0.4453125"
     inkscape:cx="510.87719"
     inkscape:cy="512"
     inkscape:window-width="1900"
     inkscape:window-height="1032"
     inkscape:window-x="10"
     inkscape:window-y="38"
     inkscape:window-maximized="1"
     inkscape:current-layer="svg2" />
  <g
     id="icomoon-ignore" />
  <path
     style="color:#000000;fill:#000000;stroke-linecap:round;stroke-linejoin:bevel;stroke-miterlimit:2.6;-inkscape-stroke:none"
     d="M 68.683594,-0.00976563 C 62.407195,0.44703055 56.243721,2.8687982 51.253906,7.2832031 41.274798,16.111552 38.586613,30.460906 44.097656,42.119141 l 0.0918,0.185546 L 424.625,833.26562 c 3.67744,7.64596 9.60517,21.09296 13.80664,29.79883 44.25141,91.69787 133.75593,153.14425 234.91406,161.73045 13.72918,1.1657 33.52969,1.2006 47.24805,0.098 h 0.002 c 142.86974,-11.4931 256.44616,-127.45788 264.1875,-271.36135 0.48424,-9.00628 0.49143,-21.98581 0.01,-31.00781 -4.33065,-81.11323 -42.70346,-156.1195 -104.67188,-207.06446 -22.17548,-18.2305 -58.6231,-39.47899 -79.94726,-53.16406 L 86.875,4.5410156 86.791016,4.4863281 C 81.350036,1.0417266 74.959993,-0.4665618 68.683594,-0.00976563 Z M 78.087891,37.613281 782.57617,489.7168 c 22.4458,14.4049 58.90504,36.15469 76.85352,50.91015 54.94746,45.17295 88.98678,111.6842 92.82812,183.63282 0.38034,7.12397 0.374,20.38573 -0.01,27.52343 -6.87556,127.79135 -107.46028,230.432 -234.26563,240.63282 -10.83599,0.87099 -31.06457,0.83238 -41.88086,-0.0859 -89.7231,-7.61567 -169.0714,-62.08265 -208.32617,-143.42774 -3.67652,-7.61811 -9.60851,-21.06579 -13.78906,-29.75781 z"
     id="path1" />
  <path
     fill="#000"
     d="M393.848 353.879c-0.089-0.060-0.198-0.095-0.315-0.095-0.315 0-0.571 0.255-0.572 0.571 0 0.113 0.033 0.218 0.089 0.307l-0.001-0.002 88.184 138.284c0.383 0.592 0.61 1.315 0.609 2.091-0.001 0.9-0.307 1.728-0.821 2.386l0.006-0.009-19.846 25.571c-0.66 0.844-1.058 1.92-1.059 3.089 0 0.594 0.102 1.163 0.29 1.693l-0.011-0.035 16.113 46.444c0.137 0.381 0.215 0.82 0.215 1.278-0.001 1.219-0.562 2.306-1.44 3.019l-0.007 0.006-15.193 12.254c-0.987 0.801-1.613 2.014-1.614 3.373 0 0.357 0.043 0.705 0.124 1.037l-0.006-0.030 40.259 169.24c0.35 1.47 0.81 3.874 1.050 5.367 15.45 95.73 97.459 166.6 194.418 168.010 1.511 0.022 3.962 0.024 5.473 0.005 108.243-1.373 195.779-88.783 197.31-197.024 0.022-1.511 0.024-3.962 0.003-5.473-1.022-77.584-46.872-147.594-117.582-179.537-1.377-0.622-3.496-1.826-4.722-2.71l-170.175-122.604c-0.477-0.347-1.075-0.556-1.722-0.556-0.905-0.001-1.715 0.406-2.256 1.047l-0.004 0.004-12.195 14.493c-0.578 0.685-1.437 1.116-2.396 1.115-0.621 0-1.2-0.182-1.686-0.495l0.012 0.007-42.472-27.012c-0.691-0.445-1.534-0.71-2.44-0.711-0.827-0.001-1.603 0.219-2.273 0.604l0.022-0.012-22.917 12.983c-0.629 0.363-1.383 0.576-2.187 0.576-0.92-0.001-1.774-0.282-2.482-0.762l0.016 0.010zM653.57 688.561c0.237-0.050 0.509-0.078 0.788-0.078 0.452 0 0.886 0.076 1.29 0.215l-0.028-0.008 112.9 37.774c1.646 0.563 2.808 2.097 2.807 3.903-0.001 1.172-0.492 2.229-1.279 2.978l-0.002 0.002-89.237 84.736c-0.673 0.64-1.586 1.034-2.591 1.033-1.82-0.001-3.337-1.296-3.683-3.013l-0.004-0.024-24.082-122.844c-0.048-0.232-0.075-0.498-0.075-0.77 0.001-1.92 1.361-3.522 3.17-3.897l0.026-0.004z"
     id="path2" />
</svg>
