<?xml version="1.0" encoding="UTF-8" standalone="no"?>
<!-- Generated by IcoMoon.io -->

<svg
   version="1.1"
   width="1024"
   height="1024"
   viewBox="0 0 1024 1024"
   id="svg9"
   sodipodi:docname="quantum-moon.svg"
   inkscape:version="1.3.2 (091e20ef0f, 2023-11-25)"
   xmlns:inkscape="http://www.inkscape.org/namespaces/inkscape"
   xmlns:sodipodi="http://sodipodi.sourceforge.net/DTD/sodipodi-0.dtd"
   xmlns="http://www.w3.org/2000/svg"
   xmlns:svg="http://www.w3.org/2000/svg">
  <defs
     id="defs9" />
  <sodipodi:namedview
     id="namedview9"
     pagecolor="#ffffff"
     bordercolor="#000000"
     borderopacity="0.25"
     inkscape:showpageshadow="2"
     inkscape:pageopacity="0.0"
     inkscape:pagecheckerboard="0"
     inkscape:deskcolor="#d1d1d1"
     inkscape:zoom="0.4453125"
     inkscape:cx="510.87719"
     inkscape:cy="512"
     inkscape:window-width="1900"
     inkscape:window-height="1032"
     inkscape:window-x="10"
     inkscape:window-y="38"
     inkscape:window-maximized="1"
     inkscape:current-layer="svg9" />
  <g
     id="icomoon-ignore" />
  <path
     fill="#000"
     d="M192.724 314.996c0 20.935-16.972 37.907-37.907 37.907s-37.907-16.972-37.907-37.907c0-20.935 16.972-37.907 37.907-37.907s37.907 16.972 37.907 37.907z"
     id="path1" />
  <path
     fill="#000"
     d="M198.101 717.985c0 20.935-16.972 37.907-37.907 37.907s-37.907-16.972-37.907-37.907c0-20.935 16.972-37.907 37.907-37.907s37.907 16.972 37.907 37.907z"
     id="path2" />
  <path
     fill="#000"
     d="M548.228 919.367c0 20.935-16.972 37.907-37.907 37.907s-37.907-16.972-37.907-37.907c0-20.935 16.972-37.907 37.907-37.907s37.907 16.972 37.907 37.907z"
     id="path3" />
  <path
     fill="#000"
     d="M898.188 722.569c0 20.935-16.972 37.907-37.907 37.907s-37.907-16.972-37.907-37.907c0-20.935 16.972-37.907 37.907-37.907s37.907 16.972 37.907 37.907z"
     id="path4" />
  <path
     fill="#000"
     d="M904.155 314.372c0 20.935-16.972 37.907-37.907 37.907s-37.907-16.972-37.907-37.907c0-20.935 16.972-37.907 37.907-37.907s37.907 16.972 37.907 37.907z"
     id="path5" />
  <path
     fill="#000"
     d="M547.3 105.174c0 20.935-16.972 37.907-37.907 37.907s-37.907-16.972-37.907-37.907c0-20.935 16.972-37.907 37.907-37.907s37.907 16.972 37.907 37.907z"
     id="path6" />
  <path
     fill="#000"
     d="M532.097 6.269l-0.795 12.461c-0.107 1.676 0.426 3.392 1.623 4.751s2.832 2.105 4.508 2.212l6.291 0.399c42.327 2.706 84.31 10.972 124.47 24.572h0.010c17.615 5.962 34.88 12.932 51.688 20.882l5.585 2.645c3.34 1.582 7.33 0.156 8.91-3.184l5.339-11.283c0.719-1.519 0.858-3.312 0.248-5.019s-1.854-3.006-3.373-3.725l-5.7-2.7c-17.705-8.375-35.894-15.72-54.443-21.998h-0.010c-42.319-14.331-86.505-23.030-131.075-25.879l-6.17-0.391c-3.689-0.234-6.87 2.566-7.105 6.256zM476.514 0.516l-6.286 0.503c-17.482 1.405-34.887 3.716-52.13 6.907v-0.010c-45.946 8.494-90.693 23.356-132.593 44.037l-5.53 2.729c-3.315 1.636-4.676 5.649-3.040 8.964l5.527 11.201c0.743 1.505 2.060 2.727 3.775 3.309s3.504 0.413 5.009-0.33l5.651-2.788c39.765-19.627 82.27-33.743 125.877-41.805h0.010c16.377-3.031 32.907-5.221 49.506-6.555l6.161-0.497c3.683-0.297 6.428-3.523 6.132-7.207l-1-12.437c-0.135-1.675-0.908-3.298-2.288-4.473s-3.106-1.68-4.781-1.546v0zM781.9 83.748l-6.927 10.379c-0.933 1.398-1.333 3.151-0.978 4.93s1.396 3.244 2.794 4.177l5.247 3.503c41.282 27.544 78.345 61.449 109.469 100.109 7.143 8.872 13.972 17.985 20.47 27.327l3.526 5.065c2.112 3.034 6.283 3.782 9.318 1.673l10.249-7.123c1.379-0.959 2.393-2.444 2.713-4.228s-0.112-3.529-1.071-4.908l-3.601-5.178c-6.848-9.845-14.042-19.443-21.556-28.775-32.772-40.707-71.763-76.369-115.24-105.377l-5.132-3.424c-3.074-2.051-7.229-1.222-9.28 1.851zM225.903 86.471l-5.188 3.586c-8.622 5.958-17.053 12.181-25.286 18.65-42.284 33.217-79.313 73.070-109.298 117.713l-3.441 5.131c-2.059 3.069-1.241 7.227 1.828 9.287l10.363 6.959c1.394 0.936 3.146 1.341 4.924 0.992s3.247-1.386 4.184-2.779l3.517-5.232c28.47-42.388 63.661-80.285 103.819-111.832 7.827-6.149 15.838-12.062 24.019-17.715l5.083-3.514c3.040-2.102 3.801-6.27 1.701-9.31l-7.094-10.268c-0.955-1.382-2.437-2.4-4.22-2.725s-3.529 0.102-4.911 1.058v0zM959.692 275.599l-11.176 5.559c-1.504 0.748-2.722 2.070-3.299 3.788s-0.402 3.507 0.346 5.011l2.808 5.646c19.076 38.354 33.028 79.273 41.342 121.293 3.53 17.82 6.057 35.847 7.571 53.95l0.516 6.151c0.309 3.683 3.545 6.419 7.228 6.111l12.437-1.038c1.674-0.14 3.295-0.918 4.466-2.303s1.669-3.112 1.529-4.786v0l-0.527-6.286c-1.593-19.063-4.256-38.031-7.973-56.796-8.76-44.275-23.446-87.349-43.544-127.757l-2.751-5.531c-1.646-3.309-5.663-4.657-8.972-3.011zM51.606 286.027l-2.715 5.695c-8.214 17.22-15.45 34.906-21.677 52.935-14.759 42.71-23.764 87.371-26.784 132.442l-0.415 6.163c-0.248 3.687 2.54 6.876 6.227 7.123l12.454 0.834c1.676 0.112 3.395-0.415 4.76-1.608s2.117-2.826 2.23-4.502v0l0.424-6.291c2.868-42.797 11.422-85.227 25.427-125.757 5.914-17.124 12.793-33.913 20.591-50.26l2.658-5.571c1.592-3.337 0.178-7.332-3.159-8.925l-11.268-5.378c-1.516-0.724-3.309-0.869-5.018-0.264s-3.011 1.846-3.734 3.363v0zM998.133 542.147l-0.458 6.286c-3.134 42.743-11.957 85.085-26.201 125.495-6.031 17.119-13.016 33.903-20.933 50.23l-2.698 5.561c-1.614 3.325-0.225 7.329 3.101 8.942l11.236 5.447c1.511 0.733 3.302 0.889 5.014 0.294s3.021-1.827 3.753-3.338l2.749-5.675c8.341-17.204 15.708-34.877 22.059-52.905 15.010-42.585 24.287-87.154 27.588-132.171l0.448-6.155c0.269-3.686-2.501-6.893-6.187-7.163l-12.452-0.912c-1.674-0.123-3.395 0.394-4.766 1.578s-2.132 2.812-2.254 4.486v0zM18.801 537.941l-12.452 0.966c-1.674 0.13-3.299 0.899-4.478 2.275s-1.687 3.101-1.557 4.775v0l0.488 6.286c1.475 19.089 4.019 38.092 7.621 56.896 8.48 44.312 22.886 87.457 42.72 127.978l2.718 5.552c1.625 3.319 5.633 4.692 8.952 3.067l11.212-5.492c1.508-0.739 2.734-2.052 3.321-3.766s0.423-3.503-0.315-5.011l-2.774-5.661c-18.825-38.46-32.511-79.448-40.558-121.504v-0.010c-3.421-17.858-5.838-35.902-7.239-54.031l-0.473-6.165c-0.283-3.685-3.501-6.442-7.186-6.157zM918.316 780.748l-3.547 5.212c-28.708 42.163-64.109 79.795-104.412 111.067v0.010c-7.906 6.135-15.99 12.025-24.25 17.655l-5.108 3.481c-3.054 2.081-3.842 6.244-1.76 9.297l7.030 10.311c0.947 1.388 2.423 2.416 4.204 2.753s3.531-0.079 4.919-1.026l5.212-3.552c8.707-5.935 17.222-12.136 25.537-18.59 42.438-32.93 79.666-72.513 109.901-116.919l3.474-5.105c2.080-3.056 1.289-7.219-1.766-9.3l-10.319-7.028c-1.388-0.945-3.136-1.361-4.916-1.023s-3.254 1.366-4.199 2.754v0zM97.464 780.647l-10.29 7.058c-1.386 0.951-2.409 2.43-2.741 4.213s0.091 3.531 1.042 4.917l3.572 5.202c6.237 9.088 12.762 17.965 19.565 26.623 32.883 41.859 72.279 78.558 116.376 108.383l5.116 3.46c3.061 2.070 7.22 1.267 9.29-1.793l6.991-10.335c0.942-1.392 1.352-3.143 1.009-4.923s-1.375-3.254-2.766-4.196l-5.222-3.537c-41.871-28.319-79.326-63.211-110.555-102.964-6.467-8.232-12.673-16.663-18.59-25.286l-3.493-5.090c-2.091-3.047-6.257-3.823-9.305-1.732zM729.995 947.747l-5.67 2.759c-39.876 19.368-82.455 33.205-126.098 40.991-16.41 2.93-32.975 5.013-49.597 6.244l-6.156 0.458c-3.686 0.274-6.452 3.484-6.179 7.171l0.922 12.451c0.124 1.674 0.887 3.301 2.259 4.484s3.094 1.697 4.768 1.572l6.286-0.468c17.501-1.296 34.937-3.491 52.211-6.575 45.984-8.203 90.816-22.774 132.835-43.182l5.552-2.696c3.325-1.615 4.711-5.62 3.096-8.944l-5.457-11.231c-0.734-1.511-2.044-2.741-3.757-3.333s-3.503-0.434-5.013 0.301v0zM286.818 951.751l-5.406 11.246c-0.728 1.515-0.878 3.307-0.278 5.018s1.837 3.017 3.351 3.746l5.685 2.734c17.685 8.503 35.857 15.976 54.403 22.38 42.199 14.582 86.293 23.546 130.814 26.673l6.163 0.434c3.687 0.26 6.887-2.519 7.147-6.206l0.878-12.454c0.118-1.676-0.403-3.397-1.592-4.765s-2.819-2.126-4.495-2.244l-6.291-0.443c-42.275-2.97-84.175-11.479-124.218-25.316v-0.010c-17.609-6.081-34.87-13.173-51.658-21.244l-5.572-2.68c-3.33-1.602-7.328-0.2-8.929 3.131z"
     id="path7" />
  <path
     fill="#000"
     d="M510.614 226.275c-5.534 0.169-11.061 0.521-16.575 1.025-4.922 0.45-9.006 4.965-9.141 9.906l-2.77 101.794c-0.062 2.279 0.754 4.58 2.457 6.354s3.969 2.681 6.247 2.712l208.626 2.791c2.283 0.030 4.576-0.815 6.333-2.542s2.642-4.004 2.651-6.287v-0.001l0.135-33.525c0.019-4.942-2.912-11.665-6.664-14.883-16.445-14.103-34.47-26.251-53.714-36.199-4.39-2.27-8.028 0.025-8.045 4.967l-0.051 14.316c-0.009 2.269-0.898 4.53-2.657 6.229s-4.050 2.507-6.316 2.436l-9.372-0.305c-2.33-0.072-4.644-1.003-6.422-2.792s-2.695-4.108-2.753-6.445v0.006l-0.646-25.168c-0.125-4.941-4.010-10.279-8.726-11.755-8.158-2.554-16.428-4.731-24.786-6.528-4.832-1.038-8.987 2.259-9.244 7.196l-1.815 34.809c-0.119 2.302-1.107 4.563-2.939 6.248s-4.168 2.48-6.474 2.406h0.002l-14.125-0.446c-2.294-0.072-4.563-1.017-6.265-2.817s-2.518-4.118-2.461-6.414v0.001l0.924-37.793c0.122-4.941-3.781-9.201-8.722-9.339-4.282-0.135-7.75-0.101-7.743-0.101zM444.275 236.437l0.068 0.068v-0.101zM411.713 247.73c-18.793 7.847-36.674 17.72-53.326 29.444-4.041 2.845-4.235 7.925-0.536 11.203 1.087 1.442 1.944 3.22 2.416 5.191s0.513 3.944 0.184 5.821l0.013-0.099 1.396 32.129c0.099 2.313 1.064 4.594 2.878 6.316s4.144 2.564 6.463 2.54h-0.004l60.696-0.575c2.267-0.022 4.52-0.926 6.204-2.696s2.474-4.065 2.383-6.328v-0.003l-2.483-61.437c-0.081-2.652-0.732-5.479-1.997-8.175s-3.024-5.003-5.118-6.863l0.107 0.103-4.319-3.894c-3.671-3.308-10.398-4.581-14.959-2.676zM316.198 313.632c-3.512 3.71-6.922 7.514-10.227 11.41-3.197 3.769-6.086 10.902-6.589 15.819 0.84 1.394 2.306 2.357 4.031 2.475s3.31-0.638 4.319-1.891l0.012-0.016 28.63-7.55c1.777-0.479 3.246-1.827 3.789-3.696s0.026-3.794-1.199-5.132l-0.019-0.020-10.41-11.237c-3.359-3.626-8.94-3.755-12.338-0.169zM356.496 379.644v36.563c0 2.29 0.874 4.581 2.621 6.328s4.038 2.621 6.328 2.621h308.879c2.29 0 4.581-0.874 6.328-2.621s2.621-4.038 2.621-6.328v0-36.563c0-2.29-0.874-4.581-2.621-6.328s-4.038-2.621-6.328-2.621h-308.879c-2.29 0-4.581 0.874-6.328 2.621s-2.621 4.038-2.621 6.328v0zM317.921 375.532l-46.059 22.039c-1.68 1.004-3.686 1.919-5.825 2.616s-4.3 1.138-6.449 1.341l0.201-0.026c-9.084 24.373-13.479 40.897-16.344 57.717-0.83 4.872 2.646 8.851 7.588 8.86l21.611 0.034c2.54 0.020 5.179-0.689 7.536-2.196s4.108-3.604 5.184-5.975l-0.028 0.057 36.917-80.202c0.551-1.219 0.323-2.677-0.668-3.653s-2.453-1.182-3.642-0.624l-0.021 0.011zM766.219 380.92l13.905 154.165c0.208 2.333 1.269 4.603 3.154 6.297s4.256 2.508 6.606 2.466h-0.008c4.011-0.068 7.817-4.091 8.325-9.007 0.676-6.528 1.12-13.079 1.336-19.639 0.169-4.94 0.169-12.955 0.007-17.895-1.306-40.845-11.534-80.912-29.966-117.386-2.229-4.411-4.163-7.919-4.162-7.915zM703.274 382.568l27.911 290.272c0.179 1.755 1.257 3.339 2.962 4.083s3.599 0.456 4.985-0.588l0.022-0.018c3.834-2.929 9.311-8.534 12.090-12.621 5.688-8.369 10.918-17.040 15.668-25.974 2.32-4.364 3.732-11.96 3.311-16.885l-20.385-238.26c-0.197-2.342-1.245-4.628-3.12-6.349s-4.242-2.57-6.601-2.567h-28.749c-2.217 0.003-4.416 0.9-6.018 2.663s-2.284 4.038-2.076 6.236l0.001 0.009zM329.099 452.89l-54.142 49.883c-1.502 1.394-2.345 3.431-2.121 5.605s1.464 3.996 3.201 5.044l0.018 0.010 18.597 11.129c1.863 1.11 4.167 1.429 6.371 0.69s3.85-2.382 4.664-4.378l0.005-0.012 26.63-65.741c0.342-0.861 0.064-1.86-0.719-2.402s-1.817-0.451-2.493 0.163l-0.010 0.010zM346.938 468.512l-16.597 43c-0.703 1.847-0.525 3.971 0.658 5.707s3.092 2.681 5.045 2.704h0.024l135.016 0.927c2.295 0.016 4.586 0.903 6.332 2.661s2.618 4.054 2.617 6.35v-0.001 11.426c0 2.29-0.874 4.581-2.621 6.328s-4.038 2.621-6.328 2.621h-67.985c-2.278 0.001-4.554 0.879-6.277 2.63s-2.564 4.040-2.528 6.317v0.002l2.853 175.866c0.017 2.651 0.602 5.49 1.809 8.21s2.918 5.059 4.975 6.955l-0.104-0.104 14.639 13.694c3.609 3.376 10.303 7.482 15.005 9.003 1.342 0.433 2.687 0.859 4.036 1.272 4.725 1.451 8.631-1.519 8.673-6.461l1.308-152.924c0.019-2.296 0.91-4.587 2.671-6.332s4.059-2.617 6.356-2.616h76.361c2.29 0 4.581-0.874 6.328-2.621s2.621-4.038 2.621-6.328v0-127.683c0-2.29-0.874-4.581-2.621-6.328s-4.038-2.621-6.328-2.621h-173.766c-2.512-0.014-5.106 0.728-7.38 2.288s-3.9 3.713-4.811 6.109l0.020-0.048zM671.251 465.552l-91.71 0.619c-2.211 0.018-4.397 0.932-5.975 2.706s-2.232 4.052-1.993 6.241l0.001 0.009 9.148 82.929c0.186 1.587 1.238 2.981 2.823 3.524s3.272 0.088 4.374-1.031l0.019-0.020 86.031-88.618c1.025-1.070 1.366-2.66 0.758-4.084s-1.992-2.277-3.448-2.278l-0.026 0.001zM684.421 512.808l-138.545 135.46c-1.915 1.836-3.579 4.212-4.734 6.957s-1.691 5.596-1.67 8.397l0.005-0.148v21.606c-0.025 2.641 0.538 5.465 1.75 8.162s2.951 4.992 5.041 6.819l-0.097-0.092 68.895 61.143c3.697 3.281 9.169 4.986 12.193 3.738l72.049-63.84c1.979-1.723 3.669-4.018 4.784-6.724s1.535-5.525 1.34-8.259l0.004 0.117-2.002-31.364c-0.147-2.331-1.15-4.62-2.993-6.349s-4.191-2.584-6.533-2.582h-5.137c-2.655-0.026-5.512 0.503-8.268 1.645s-5.15 2.788-7.12 4.787l0.111-0.103-38.667 38.666c-1.62 1.619-3.857 2.621-6.328 2.621s-4.708-1.002-6.328-2.622l-13-13.003c-1.619-1.62-2.621-3.857-2.621-6.329s1.002-4.709 2.621-6.328l75.317-75.323c1.896-1.859 3.542-4.253 4.683-7.009s1.671-5.613 1.65-8.42l-0.005 0.151 0.003-59.081c-0.010-1.486-0.874-2.869-2.305-3.471s-3.024-0.253-4.075 0.759l-0.018 0.019zM239.639 516.48c1.91 52.227 18.396 102.885 47.589 146.234 2.761 4.1 4.909 3.342 4.653-1.597l-1.714-33.001c-0.072-1.578 0.739-3.104 2.203-3.876s3.181-0.578 4.422 0.356l0.021 0.017 59.345 45.359c1.291 0.974 3.045 1.185 4.557 0.416s2.373-2.311 2.348-3.9l-0.002-0.028-1.559-67.332c-0.038-2.611-0.722-5.357-2.113-7.908s-3.327-4.615-5.586-6.124l0.086 0.062-107.028-72.601c-4.090-2.774-7.403-1.015-7.222 3.923zM788.277 575.489c0.169 4.825 1.444 4.892 2.669 0.101 1.191-4.653-0.237-8.721-2.987-9.047zM471.869 632.259l-0.399 15.996c-0.085 2.591 0.497 5.331 1.824 7.881s3.237 4.6 5.482 6.070l-0.075-0.053 32.543 21.616c1.472 0.965 3.377 1.125 5.024 0.27s2.612-2.505 2.669-4.237v-0.028l1.15-43.221c0.064-2.334-0.729-4.702-2.409-6.588s-3.942-2.947-6.274-3.152l0.007 0.001-30.403-2.706c-2.233-0.197-4.534 0.492-6.334 2.098s-2.746 3.813-2.803 6.049v0.006zM469.157 686.108l1.491 87.038c0.085 4.942 4.097 9.662 8.989 10.368 10.267 1.482 20.609 2.395 30.977 2.73 4.94 0.169 12.956 0.169 17.896 0.003 10.868-0.348 21.707-1.329 32.461-2.936 4.888-0.731 11.485-4.464 14.762-8.164 1.344-1.688 2.026-3.895 1.722-6.199s-1.535-4.259-3.269-5.537l-0.003-0.002-98.259-80.573c-1.229-0.994-2.939-1.247-4.43-0.526s-2.354 2.219-2.339 3.773l0.001 0.027zM323.606 706.368c-0.002 0.018 2.849 2.848 6.489 6.192 11.143 10.237 23.097 19.554 35.745 27.861 4.131 2.713 4.692 1.992 1.156-1.461l-36.065-35.238c-1.169-1.127-2.89-1.553-4.493-0.974s-2.654 2.008-2.83 3.595l-0.002 0.028z"
     id="path8" />
  <path
     style="color:#000000;fill:#000000;-inkscape-stroke:none"
     d="m 518.26172,210.7832 c -163.68388,0 -296.59961,132.91674 -296.59961,296.59961 0,163.68384 132.91577,296.59766 296.59961,296.59766 163.68388,0 296.59961,-132.91479 296.59961,-296.59766 0,-163.68383 -132.91578,-296.59961 -296.59961,-296.59961 z m 0,20.86719 c 152.40585,0 275.73047,123.32657 275.73047,275.73242 0,152.40482 -123.32467,275.73047 -275.73047,275.73047 -152.40585,0 -275.73047,-123.32462 -275.73047,-275.73047 0,-152.40481 123.32466,-275.73242 275.73047,-275.73242 z"
     id="path9" />
</svg>
