<?xml version="1.0" encoding="UTF-8" standalone="no"?>
<!-- Generated by IcoMoon.io -->

<svg
   version="1.1"
   width="1024"
   height="1024"
   viewBox="0 0 1024 1024"
   id="svg5"
   sodipodi:docname="sonde2.svg"
   inkscape:version="1.3.2 (091e20ef0f, 2023-11-25)"
   xmlns:inkscape="http://www.inkscape.org/namespaces/inkscape"
   xmlns:sodipodi="http://sodipodi.sourceforge.net/DTD/sodipodi-0.dtd"
   xmlns="http://www.w3.org/2000/svg"
   xmlns:svg="http://www.w3.org/2000/svg">
  <defs
     id="defs5" />
  <sodipodi:namedview
     id="namedview5"
     pagecolor="#ffffff"
     bordercolor="#000000"
     borderopacity="0.25"
     inkscape:showpageshadow="2"
     inkscape:pageopacity="0.0"
     inkscape:pagecheckerboard="0"
     inkscape:deskcolor="#d1d1d1"
     inkscape:zoom="2.0188241"
     inkscape:cx="442.83204"
     inkscape:cy="551.31103"
     inkscape:window-width="630"
     inkscape:window-height="1032"
     inkscape:window-x="645"
     inkscape:window-y="38"
     inkscape:window-maximized="0"
     inkscape:current-layer="svg5" />
  <g
     id="icomoon-ignore" />
  <path
     style="color:#000000;fill:#000000;-inkscape-stroke:none"
     d="m 589.51367,461.89453 -36.22461,19.94727 -0.83594,41.34375 35.38868,21.39843 36.22265,-19.94726 0.83594,-41.34375 z m -0.24414,12.04102 25.08203,15.16601 -0.59179,29.30469 -25.67579,14.13672 -25.08203,-15.16602 0.59375,-29.30468 z"
     id="path1" />
  <g
     id="path2">
    <path
       style="color:#000000;fill:#656565;-inkscape-stroke:none"
       d="m 542.9828,532.56203 -55.125,29.86 -1.958,-3.59 55.125,-29.86 z m -53.874,28.911 52.395,-28.38 -1.73,-3.172 -52.395,28.38 z"
       id="path10" />
    <path
       style="color:#000000;fill:#000000;-inkscape-stroke:none"
       d="m 543.11328,521.91016 -64.29687,34.82812 6.95312,12.74609 64.29492,-34.82812 -63.04492,33.87891 4.57227,-2.47657 56.99414,-30.87109 -6.68946,-12.26563 z"
       id="path11" />
  </g>
  <g
     id="path3">
    <path
       style="color:#000000;fill:#656565;-inkscape-stroke:none"
       d="m 484.25826,598.43569 v -36.75 h 4.242 v 36.75 z m 0.246,-35.84 v 34.93 h 3.749 v -34.93 z"
       id="path8" />
    <path
       style="color:#000000;fill:#000000;-inkscape-stroke:none"
       d="m 479.04297,556.4707 v 47.17969 l 0.24609,-46.26953 v 5.21484 40.14453 h 14.14258 l 0.2832,0.91016 V 556.4707 Z"
       id="path9" />
  </g>
  <g
     id="path4">
    <path
       style="color:#000000;fill:#656565;-inkscape-stroke:none"
       d="m 514.82662,536.86732 -40.80973,-65.67026 2.77329,-1.31205 40.80971,65.67026 z m -39.63785,-64.11965 38.78886,62.41693 2.45038,-1.15927 -38.78885,-62.41693 z"
       id="path6" />
    <path
       style="color:#000000;fill:#000000;-inkscape-stroke:none"
       d="m 478.76367,463.18164 -12.26172,5.80273 46.34961,74.58594 -45.17773,-73.03711 3.08594,4.9668 41.24414,66.36719 11.83007,-5.59766 1.28125,1.5 z"
       id="path7" />
  </g>
  <path
     style="color:#000000;fill:#000000;-inkscape-stroke:none"
     d="m 425.98047,388.4707 -20.58985,35.65821 20.58985,35.66015 H 467.1582 L 487.74805,424.12891 467.1582,388.4707 Z m 6.02148,10.42969 h 29.13477 l 14.56836,25.22852 -14.56836,25.23046 h -29.13477 l -14.56836,-25.23046 z"
     id="path5" />
</svg>
