<?xml version="1.0" encoding="UTF-8" standalone="no"?>
<!-- Generated by IcoMoon.io -->

<svg
   version="1.1"
   width="1024"
   height="1024"
   viewBox="0 0 1024 1024"
   id="svg8"
   sodipodi:docname="sonde3.svg"
   inkscape:version="1.3.2 (091e20ef0f, 2023-11-25)"
   xmlns:inkscape="http://www.inkscape.org/namespaces/inkscape"
   xmlns:sodipodi="http://sodipodi.sourceforge.net/DTD/sodipodi-0.dtd"
   xmlns="http://www.w3.org/2000/svg"
   xmlns:svg="http://www.w3.org/2000/svg">
  <defs
     id="defs8" />
  <sodipodi:namedview
     id="namedview8"
     pagecolor="#ffffff"
     bordercolor="#000000"
     borderopacity="0.25"
     inkscape:showpageshadow="2"
     inkscape:pageopacity="0.0"
     inkscape:pagecheckerboard="0"
     inkscape:deskcolor="#d1d1d1"
     inkscape:zoom="0.91360418"
     inkscape:cx="282.94529"
     inkscape:cy="663.30695"
     inkscape:window-width="1900"
     inkscape:window-height="1032"
     inkscape:window-x="10"
     inkscape:window-y="38"
     inkscape:window-maximized="1"
     inkscape:current-layer="svg8" />
  <g
     id="icomoon-ignore" />
  <path
     style="color:#000000;fill:#000000;-inkscape-stroke:none"
     d="m 625.47656,476.08789 -36.22461,19.94727 -0.83593,41.34375 35.38867,21.39843 36.22265,-19.94726 0.83594,-41.34375 z m -0.24414,12.04102 25.08203,15.16601 -0.59179,29.30469 -25.67383,14.13672 -25.08399,-15.16602 0.59375,-29.30273 z"
     id="path1" />
  <g
     id="path2">
    <path
       style="color:#000000;fill:#000000;-inkscape-stroke:none"
       d="m 575.528,547.704 -55.125,29.86 -1.958,-3.59 55.125,-29.86 z m -53.873,28.912 52.395,-28.38 -1.73,-3.172 -52.395,28.38 z"
       id="path17" />
    <path
       style="color:#000000;fill:#000000;-inkscape-stroke:none"
       d="m 575.6582,537.05273 -64.29492,34.82618 6.95117,12.74804 64.29688,-34.82812 -63.04492,33.8789 4.57226,-2.47656 56.99414,-30.87109 -6.6914,-12.26563 z"
       id="path18" />
  </g>
  <g
     id="path3">
    <path
       style="color:#000000;fill:#000000;-inkscape-stroke:none"
       d="m 516.9081,613.95422 v -36.75 h 4.242 v 36.75 z m 0.247,-35.84 v 34.93 h 3.749 v -34.93 z"
       id="path15" />
    <path
       style="color:#000000;fill:#000000;-inkscape-stroke:none"
       d="m 511.69336,571.98828 v 47.18164 l 0.24609,-46.27148 v 5.21484 40.14649 h 14.14258 l 0.2832,0.91015 v -47.18164 z"
       id="path16" />
  </g>
  <g
     id="path4">
    <path
       style="color:#000000;fill:#000000;-inkscape-stroke:none"
       d="m 544.669,551.771 -52.828,-98.766 3.59,-1.958 52.828,98.766 z m -51.311,-96.433 50.212,93.874 3.172,-1.73 -50.212,-93.874 z"
       id="path13" />
    <path
       style="color:#000000;fill:#000000;-inkscape-stroke:none"
       d="m 497.54883,443.95117 -12.7461,6.95313 57.74805,107.96289 -56.23047,-105.63086 2.43946,4.56054 52.6914,98.51172 12.24805,-6.68164 1.59765,2.28711 z"
       id="path14" />
  </g>
  <path
     style="color:#000000;fill:#000000;-inkscape-stroke:none"
     d="m 445.12305,368.62109 -20.58985,35.66016 20.58985,35.66016 h 41.17773 l 20.58984,-35.66016 -20.58984,-35.66016 z m 6.02148,10.42969 h 29.13477 l 14.56836,25.23047 -14.56836,25.23047 h -29.13672 l -14.56641,-25.23047 z"
     id="path5" />
  <g
     id="path6">
    <path
       style="color:#000000;fill:#000000;-inkscape-stroke:none"
       d="m 513.671,509.627 -55.125,29.86 -1.958,-3.59 55.125,-29.86 z m -53.874,28.911 52.395,-28.38 -1.73,-3.172 -52.395,28.38 z"
       id="path11" />
    <path
       style="color:#000000;fill:#000000;-inkscape-stroke:none"
       d="m 513.80078,498.97461 -64.29492,34.82812 6.95117,12.7461 64.29688,-34.82813 -63.04493,33.87891 4.57227,-2.47656 56.99414,-30.8711 -6.69141,-12.26562 z"
       id="path12" />
  </g>
  <g
     id="path7">
    <path
       style="color:#000000;fill:#000000;-inkscape-stroke:none"
       d="m 414.61909,537.03853 h 36.75 v 4.242 h -36.75 z m 35.84,0.246 h -34.93 v 3.749 h 34.93 z"
       id="path9" />
    <path
       style="color:#000000;fill:#000000;-inkscape-stroke:none"
       d="m 409.4043,531.82422 46.26953,0.24609 h -5.21485 -40.14453 v 14.14258 l -0.91015,0.2832 h 47.17968 v -14.67187 z"
       id="path10" />
  </g>
  <path
     style="color:#000000;fill:#000000;-inkscape-stroke:none"
     d="m 338.71094,504.92773 -20.58985,35.66016 20.58985,35.6582 h 41.17773 l 20.5918,-35.6582 -20.5918,-35.66016 z m 6.02148,10.42969 h 29.13672 l 14.56641,25.23047 -14.56641,25.22852 h -29.13672 l -14.56836,-25.22852 z"
     id="path8" />
</svg>
